<svg width="40" height="40" viewBox="0 0 40 40" fill="none" xmlns="http://www.w3.org/2000/svg">
<rect width="40" height="40" rx="20" fill="#855231"/>
<path d="M16.4 12H13.6C13.1757 12 12.7687 12.1686 12.4686 12.4686C12.1686 12.7687 12 13.1757 12 13.6V16.4C12 16.6101 12.0414 16.8182 12.1218 17.0123C12.2022 17.2064 12.3201 17.3828 12.4686 17.5314C12.6172 17.6799 12.7936 17.7978 12.9877 17.8782C13.1818 17.9586 13.3899 18 13.6 18H16.4C16.6101 18 16.8182 17.9586 17.0123 17.8782C17.2064 17.7978 17.3828 17.6799 17.5314 17.5314C17.6799 17.3828 17.7978 17.2064 17.8782 17.0123C17.9586 16.8182 18 16.6101 18 16.4V13.6C18 13.1757 17.8314 12.7687 17.5314 12.4686C17.2313 12.1686 16.8243 12 16.4 12ZM16.4 22H13.6C13.1757 22 12.7687 22.1686 12.4686 22.4686C12.1686 22.7687 12 23.1757 12 23.6V26.4C12 26.8243 12.1686 27.2313 12.4686 27.5314C12.7687 27.8314 13.1757 28 13.6 28H16.4C16.8243 28 17.2313 27.8314 17.5314 27.5314C17.8314 27.2313 18 26.8243 18 26.4V23.6C18 23.1757 17.8314 22.7687 17.5314 22.4686C17.2313 22.1686 16.8243 22 16.4 22ZM26.4 12H23.6C23.1757 12 22.7687 12.1686 22.4686 12.4686C22.1686 12.7687 22 13.1757 22 13.6V16.4C22 16.8243 22.1686 17.2313 22.4686 17.5314C22.7687 17.8314 23.1757 18 23.6 18H26.4C26.8243 18 27.2313 17.8314 27.5314 17.5314C27.8314 17.2313 28 16.8243 28 16.4V13.6C28 13.1757 27.8314 12.7687 27.5314 12.4686C27.2313 12.1686 26.8243 12 26.4 12ZM26.4 22H23.6C23.1757 22 22.7687 22.1686 22.4686 22.4686C22.1686 22.7687 22 23.1757 22 23.6V26.4C22 26.8243 22.1686 27.2313 22.4686 27.5314C22.7687 27.8314 23.1757 28 23.6 28H26.4C26.8243 28 27.2313 27.8314 27.5314 27.5314C27.8314 27.2313 28 26.8243 28 26.4V23.6C28 23.1757 27.8314 22.7687 27.5314 22.4686C27.2313 22.1686 26.8243 22 26.4 22Z" stroke="white" stroke-width="1.5" stroke-miterlimit="10" stroke-linejoin="round"/>
</svg>
