<svg width="40" height="40" viewBox="0 0 40 40" fill="none" xmlns="http://www.w3.org/2000/svg">
<rect width="40" height="40" rx="20" fill="#855231"/>
<path d="M11.7942 20.0291C12.3314 17.3433 12.6 16.0004 13.4875 15.1354C13.6515 14.9756 13.8289 14.8301 14.0179 14.7006C15.04 14 16.4096 14 19.1486 14H20.8515C23.5906 14 24.9601 14 25.9823 14.7006C26.1712 14.8301 26.3486 14.9756 26.5127 15.1354C27.4001 16.0004 27.6687 17.3433 28.2059 20.0291C28.9771 23.8851 29.3627 25.8131 28.475 27.1793C28.3143 27.4267 28.1267 27.6555 27.9157 27.8616C26.7501 29 24.7839 29 20.8515 29H19.1486C15.2162 29 13.25 29 12.0845 27.8616C11.8734 27.6555 11.6858 27.4267 11.5251 27.1793C10.6374 25.8131 11.023 23.8851 11.7942 20.0291Z" stroke="white" stroke-width="1.5"/>
<circle cx="23" cy="17" r="1" fill="white"/>
<circle cx="17" cy="17" r="1" fill="white"/>
<path d="M17 14V13C17 11.3431 18.3431 10 20 10C21.6569 10 23 11.3431 23 13V14" stroke="white" stroke-width="1.5" stroke-linecap="round"/>
</svg>
