<svg width="45" height="40" viewBox="0 0 45 40" fill="none" xmlns="http://www.w3.org/2000/svg">
<path d="M44.7059 0.407331L43.6918 8.07841C41.2128 7.91344 39.2972 8.35336 37.9451 9.39816C36.5929 10.443 35.6915 11.9002 35.2407 13.7698C34.79 15.6395 34.7055 17.7566 34.9872 20.1212H44.7059V40H26.0291V18.4715C26.0291 11.9827 27.6067 7.08859 30.7617 3.78921C33.9731 0.434828 38.6212 -0.692464 44.7059 0.407331ZM18.6767 0.407331L17.6626 8.07841C15.1837 7.91344 13.2681 8.35336 11.9159 9.39816C10.5638 10.443 9.66233 11.9002 9.21161 13.7698C8.76089 15.6395 8.67638 17.7566 8.95808 20.1212H18.6767V40H0V18.4715C0 11.9827 1.57752 7.08859 4.73257 3.78921C7.94396 0.434828 12.592 -0.692464 18.6767 0.407331Z" fill="#855231"/>
</svg>
