<svg width="36" height="36" viewBox="0 0 36 36" fill="none" xmlns="http://www.w3.org/2000/svg">
<path d="M10.6285 25.3715L21.7605 21.7605L25.3715 10.6285L14.2414 14.2414L10.6285 25.3715ZM17.9923 20.139C17.3956 20.139 16.8909 19.9301 16.4782 19.5122C16.068 19.0944 15.8629 18.5878 15.8629 17.9923C15.8629 17.3956 16.0712 16.8909 16.4878 16.4782C16.9056 16.068 17.4122 15.8629 18.0077 15.8629C18.6044 15.8629 19.1091 16.0712 19.5218 16.4878C19.9333 16.9056 20.139 17.4122 20.139 18.0077C20.139 18.6044 19.9301 19.1091 19.5122 19.5218C19.0944 19.9333 18.5878 20.139 17.9923 20.139ZM18.0058 35.25C15.6201 35.25 13.3776 34.7977 11.2782 33.893C9.17886 32.9871 7.35228 31.7578 5.7985 30.2053C4.24472 28.6528 3.01486 26.8282 2.10892 24.7313C1.20297 22.6345 0.75 20.3926 0.75 18.0058C0.75 15.6189 1.20297 13.3764 2.10892 11.2782C3.01358 9.17886 4.24089 7.35228 5.79083 5.7985C7.34078 4.24472 9.16608 3.01486 11.2668 2.10892C13.3674 1.20297 15.6099 0.75 17.9942 0.75C20.3786 0.75 22.6211 1.20297 24.7218 2.10892C26.8211 3.01358 28.6477 4.24153 30.2015 5.79275C31.7553 7.34397 32.9851 9.16928 33.8911 11.2687C34.797 13.3681 35.25 15.6099 35.25 17.9942C35.25 20.3786 34.7977 22.6211 33.893 24.7218C32.9883 26.8224 31.7591 28.649 30.2053 30.2015C28.6516 31.754 26.8269 32.9839 24.7313 33.8911C22.6358 34.7983 20.3939 35.2513 18.0058 35.25Z" fill="#855231"/>
</svg>
